#tb 0: 1/8000
#media_type 0: audio
#codec_id 0: pcm_s16le
#sample_rate 0: 8000
#channel_layout 0: 4
#channel_layout_name 0: mono
0,          0,          0,      160,      320, 0x00000000
0,        160,        160,      160,      320, 0x4cfd5d74
0,        320,        320,      160,      320, 0xbb60fa3d
0,        480,        480,      160,      320, 0x4d75097c
0,        640,        640,      160,      320, 0x59cbd3b4
0,        800,        800,      160,      320, 0x0bcddb40
0,        960,        960,      160,      320, 0x3d8ec98a
0,       1120,       1120,      160,      320, 0x3612b700
0,       1280,       1280,      160,      320, 0x23cfb9b6
0,       1440,       1440,      160,      320, 0xd339c9a5
0,       1600,       1600,      160,      320, 0xffb6b7c9
0,       1760,       1760,      160,      320, 0x8730ac48
0,       1920,       1920,      160,      320, 0x1568b279
0,       2080,       2080,      160,      320, 0xf2229fda
0,       2240,       2240,      160,      320, 0x91c0adbf
0,       2400,       2400,      160,      320, 0xe261a238
0,       2560,       2560,      160,      320, 0x5c0d97c6
0,       2720,       2720,      160,      320, 0x32d492de
0,       2880,       2880,      160,      320, 0x46a3af81
0,       3040,       3040,      160,      320, 0xf8deaa2e
0,       3200,       3200,      160,      320, 0x48649866
0,       3360,       3360,      160,      320, 0x4cb2a03e
0,       3520,       3520,      160,      320, 0x55e9a3d7
0,       3680,       3680,      160,      320, 0xc60d9cf8
0,       3840,       3840,      160,      320, 0x969098b8
0,       4000,       4000,      160,      320, 0xe00b9f43
0,       4160,       4160,      160,      320, 0x85c6af06
0,       4320,       4320,      160,      320, 0x2037a849
0,       4480,       4480,      160,      320, 0xd8e09379
0,       4640,       4640,      160,      320, 0x5df69e34
0,       4800,       4800,      160,      320, 0x95869c06
0,       4960,       4960,      160,      320, 0x651c95a7
0,       5120,       5120,      160,      320, 0xd433a2f4
0,       5280,       5280,      160,      320, 0xc6c1a0e2
0,       5440,       5440,      160,      320, 0x6cad9e61
0,       5600,       5600,      160,      320, 0x57f5ab36
0,       5760,       5760,      160,      320, 0x11fd9788
0,       5920,       5920,      160,      320, 0x805db795
0,       6080,       6080,      160,      320, 0xb306a36b
0,       6240,       6240,      160,      320, 0xa34d9933
0,       6400,       6400,      160,      320, 0xbc24a23c
0,       6560,       6560,      160,      320, 0x6639a03c
0,       6720,       6720,      160,      320, 0x4f20ab13
0,       6880,       6880,      160,      320, 0xe30ca2bb
0,       7040,       7040,      160,      320, 0x51e5ac4f
0,       7200,       7200,      160,      320, 0x2a369ff4
0,       7360,       7360,      160,      320, 0xfbffaa78
0,       7520,       7520,      160,      320, 0xf117a04f
0,       7680,       7680,      160,      320, 0x36479938
0,       7840,       7840,      160,      320, 0xd1269299
